<?xml version="1.0" encoding="UTF-8" standalone="no"?><svg xmlns="http://www.w3.org/2000/svg" xmlns:xlink="http://www.w3.org/1999/xlink" contentScriptType="application/ecmascript" contentStyleType="text/css" height="567px" preserveAspectRatio="none" style="width:1002px;height:567px;" version="1.1" viewBox="0 0 1002 567" width="1002px" zoomAndPan="magnify"><defs><filter height="300%" id="f1gd3x5bga6eau" width="300%" x="-1" y="-1"><feGaussianBlur result="blurOut" stdDeviation="2.0"/><feColorMatrix in="blurOut" result="blurOut2" type="matrix" values="0 0 0 0 0 0 0 0 0 0 0 0 0 0 0 0 0 0 .4 0"/><feOffset dx="4.0" dy="4.0" in="blurOut2" result="blurOut3"/><feBlend in="SourceGraphic" in2="blurOut3" mode="normal"/></filter></defs><g><rect fill="#FFFFFF" filter="url(#f1gd3x5bga6eau)" height="93.6211" style="stroke: #A80036; stroke-width: 1.0;" width="10" x="95.5" y="313.8398"/><rect fill="#FFFFFF" filter="url(#f1gd3x5bga6eau)" height="30" style="stroke: #A80036; stroke-width: 1.0;" width="10" x="290.5" y="377.4609"/><rect fill="#FFFFFF" filter="url(#f1gd3x5bga6eau)" height="92.9316" style="stroke: #A80036; stroke-width: 1.0;" width="10" x="290.5" y="444.7715"/><rect fill="#FFFFFF" filter="url(#f1gd3x5bga6eau)" height="422.1055" style="stroke: #A80036; stroke-width: 1.0;" width="10" x="492" y="86.2871"/><rect fill="#FFFFFF" filter="url(#f1gd3x5bga6eau)" height="59.3105" style="stroke: #A80036; stroke-width: 1.0;" width="10" x="725" y="86.2871"/><rect fill="#FFFFFF" filter="url(#f1gd3x5bga6eau)" height="59.3105" style="stroke: #A80036; stroke-width: 1.0;" width="10" x="725" y="217.2188"/><rect fill="#FFFFFF" filter="url(#f1gd3x5bga6eau)" height="30" style="stroke: #A80036; stroke-width: 1.0;" width="10" x="892" y="115.5977"/><rect fill="#FFFFFF" filter="url(#f1gd3x5bga6eau)" height="30" style="stroke: #A80036; stroke-width: 1.0;" width="10" x="892" y="246.5293"/><rect fill="#FFFFFF" filter="url(#f1gd3x5bga6eau)" height="58.6211" style="stroke: #A80036; stroke-width: 1.0;" width="10" x="892" y="479.082"/><line style="stroke: #A80036; stroke-width: 1.0; stroke-dasharray: 5.0,5.0;" x1="100" x2="100" y1="54.9766" y2="555.7031"/><line style="stroke: #A80036; stroke-width: 1.0; stroke-dasharray: 5.0,5.0;" x1="295" x2="295" y1="54.9766" y2="555.7031"/><line style="stroke: #A80036; stroke-width: 1.0; stroke-dasharray: 5.0,5.0;" x1="497" x2="497" y1="54.9766" y2="555.7031"/><line style="stroke: #A80036; stroke-width: 1.0; stroke-dasharray: 5.0,5.0;" x1="729.5" x2="729.5" y1="54.9766" y2="555.7031"/><line style="stroke: #A80036; stroke-width: 1.0; stroke-dasharray: 5.0,5.0;" x1="896.5" x2="896.5" y1="54.9766" y2="555.7031"/><rect fill="#FEFECE" filter="url(#f1gd3x5bga6eau)" height="46.9766" style="stroke: #A80036; stroke-width: 1.5;" width="181" x="8" y="3"/><text fill="#000000" font-family="sans-serif" font-size="14" lengthAdjust="spacingAndGlyphs" textLength="85" x="54" y="23.5352">PIXm Source</text><text fill="#000000" font-family="sans-serif" font-size="14" lengthAdjust="spacingAndGlyphs" textLength="163" x="19" y="40.0234">(Intensive Care domain)</text><rect fill="#FEFECE" filter="url(#f1gd3x5bga6eau)" height="46.9766" style="stroke: #A80036; stroke-width: 1.5;" width="181" x="203" y="3"/><text fill="#000000" font-family="sans-serif" font-size="14" lengthAdjust="spacingAndGlyphs" textLength="49" x="267" y="23.5352">Display</text><text fill="#000000" font-family="sans-serif" font-size="14" lengthAdjust="spacingAndGlyphs" textLength="163" x="214" y="40.0234">(Intensive Care domain)</text><rect fill="#FEFECE" filter="url(#f1gd3x5bga6eau)" height="46.9766" style="stroke: #A80036; stroke-width: 1.5;" width="194" x="398" y="3"/><text fill="#000000" font-family="sans-serif" font-size="14" lengthAdjust="spacingAndGlyphs" textLength="113" x="436.5" y="23.5352">Patient Identifier</text><text fill="#000000" font-family="sans-serif" font-size="14" lengthAdjust="spacingAndGlyphs" textLength="176" x="409" y="40.0234">Cross-reference Manager</text><rect fill="#FEFECE" filter="url(#f1gd3x5bga6eau)" height="46.9766" style="stroke: #A80036; stroke-width: 1.5;" width="113" x="671.5" y="3"/><text fill="#000000" font-family="sans-serif" font-size="14" lengthAdjust="spacingAndGlyphs" textLength="85" x="683.5" y="23.5352">PIXm Source</text><text fill="#000000" font-family="sans-serif" font-size="14" lengthAdjust="spacingAndGlyphs" textLength="95" x="682.5" y="40.0234">(ADT domain)</text><rect fill="#FEFECE" filter="url(#f1gd3x5bga6eau)" height="46.9766" style="stroke: #A80036; stroke-width: 1.5;" width="193" x="798.5" y="3"/><text fill="#000000" font-family="sans-serif" font-size="14" lengthAdjust="spacingAndGlyphs" textLength="109" x="838.5" y="23.5352">PIXm Consumer</text><text fill="#000000" font-family="sans-serif" font-size="14" lengthAdjust="spacingAndGlyphs" textLength="175" x="809.5" y="40.0234">(ADT domain Lab System)</text><rect fill="#FFFFFF" filter="url(#f1gd3x5bga6eau)" height="93.6211" style="stroke: #A80036; stroke-width: 1.0;" width="10" x="95.5" y="313.8398"/><rect fill="#FFFFFF" filter="url(#f1gd3x5bga6eau)" height="30" style="stroke: #A80036; stroke-width: 1.0;" width="10" x="290.5" y="377.4609"/><rect fill="#FFFFFF" filter="url(#f1gd3x5bga6eau)" height="92.9316" style="stroke: #A80036; stroke-width: 1.0;" width="10" x="290.5" y="444.7715"/><rect fill="#FFFFFF" filter="url(#f1gd3x5bga6eau)" height="422.1055" style="stroke: #A80036; stroke-width: 1.0;" width="10" x="492" y="86.2871"/><rect fill="#FFFFFF" filter="url(#f1gd3x5bga6eau)" height="59.3105" style="stroke: #A80036; stroke-width: 1.0;" width="10" x="725" y="86.2871"/><rect fill="#FFFFFF" filter="url(#f1gd3x5bga6eau)" height="59.3105" style="stroke: #A80036; stroke-width: 1.0;" width="10" x="725" y="217.2188"/><rect fill="#FFFFFF" filter="url(#f1gd3x5bga6eau)" height="30" style="stroke: #A80036; stroke-width: 1.0;" width="10" x="892" y="115.5977"/><rect fill="#FFFFFF" filter="url(#f1gd3x5bga6eau)" height="30" style="stroke: #A80036; stroke-width: 1.0;" width="10" x="892" y="246.5293"/><rect fill="#FFFFFF" filter="url(#f1gd3x5bga6eau)" height="58.6211" style="stroke: #A80036; stroke-width: 1.0;" width="10" x="892" y="479.082"/><polygon fill="#A80036" points="513,82.2871,503,86.2871,513,90.2871,509,86.2871" style="stroke: #A80036; stroke-width: 1.0;"/><line style="stroke: #A80036; stroke-width: 1.0;" x1="507" x2="724" y1="86.2871" y2="86.2871"/><text fill="#000000" font-family="sans-serif" font-size="13" lengthAdjust="spacingAndGlyphs" textLength="189" x="519" y="81.5449">[01] PIXm Feed (Add) [ITI-104]</text><polygon fill="#A80036" points="880,111.5977,890,115.5977,880,119.5977,884,115.5977" style="stroke: #A80036; stroke-width: 1.0;"/><line style="stroke: #A80036; stroke-width: 1.0; stroke-dasharray: 2.0,2.0;" x1="735" x2="886" y1="115.5977" y2="115.5977"/><text fill="#000000" font-family="sans-serif" font-size="13" lengthAdjust="spacingAndGlyphs" textLength="37" x="742" y="110.8555">notify</text><line style="stroke: #A80036; stroke-width: 1.0;" x1="502" x2="544" y1="174.9082" y2="174.9082"/><line style="stroke: #A80036; stroke-width: 1.0;" x1="544" x2="544" y1="174.9082" y2="187.9082"/><line style="stroke: #A80036; stroke-width: 1.0;" x1="503" x2="544" y1="187.9082" y2="187.9082"/><polygon fill="#A80036" points="513,183.9082,503,187.9082,513,191.9082,509,187.9082" style="stroke: #A80036; stroke-width: 1.0;"/><text fill="#000000" font-family="sans-serif" font-size="13" lengthAdjust="spacingAndGlyphs" textLength="128" x="509" y="170.166">[02] Apply Xref logic</text><polygon fill="#A80036" points="513,213.2188,503,217.2188,513,221.2188,509,217.2188" style="stroke: #A80036; stroke-width: 1.0;"/><line style="stroke: #A80036; stroke-width: 1.0;" x1="507" x2="724" y1="217.2188" y2="217.2188"/><text fill="#000000" font-family="sans-serif" font-size="13" lengthAdjust="spacingAndGlyphs" textLength="204" x="519" y="212.4766">[03] PIXm Feed (Revise) [ITI-104]</text><polygon fill="#A80036" points="880,242.5293,890,246.5293,880,250.5293,884,246.5293" style="stroke: #A80036; stroke-width: 1.0;"/><line style="stroke: #A80036; stroke-width: 1.0; stroke-dasharray: 2.0,2.0;" x1="735" x2="886" y1="246.5293" y2="246.5293"/><text fill="#000000" font-family="sans-serif" font-size="13" lengthAdjust="spacingAndGlyphs" textLength="37" x="742" y="241.7871">notify</text><line style="stroke: #A80036; stroke-width: 1.0;" x1="502" x2="549" y1="300.8398" y2="300.8398"/><line style="stroke: #A80036; stroke-width: 1.0;" x1="549" x2="549" y1="300.8398" y2="313.8398"/><line style="stroke: #A80036; stroke-width: 1.0;" x1="508" x2="549" y1="313.8398" y2="313.8398"/><polygon fill="#A80036" points="518,309.8398,508,313.8398,518,317.8398,514,313.8398" style="stroke: #A80036; stroke-width: 1.0;"/><text fill="#000000" font-family="sans-serif" font-size="13" lengthAdjust="spacingAndGlyphs" textLength="128" x="514" y="296.0977">[04] Apply Xref logic</text><polygon fill="#A80036" points="480,344.1504,490,348.1504,480,352.1504,484,348.1504" style="stroke: #A80036; stroke-width: 1.0;"/><line style="stroke: #A80036; stroke-width: 1.0;" x1="105.5" x2="486" y1="348.1504" y2="348.1504"/><text fill="#000000" font-family="sans-serif" font-size="13" lengthAdjust="spacingAndGlyphs" textLength="189" x="112.5" y="343.4082">[05] PIXm Feed (Add) [ITI-104]</text><polygon fill="#A80036" points="278.5,373.4609,288.5,377.4609,278.5,381.4609,282.5,377.4609" style="stroke: #A80036; stroke-width: 1.0;"/><line style="stroke: #A80036; stroke-width: 1.0; stroke-dasharray: 2.0,2.0;" x1="105.5" x2="284.5" y1="377.4609" y2="377.4609"/><text fill="#000000" font-family="sans-serif" font-size="13" lengthAdjust="spacingAndGlyphs" textLength="37" x="112.5" y="372.7188">notify</text><line style="stroke: #A80036; stroke-width: 1.0;" x1="502" x2="549" y1="431.7715" y2="431.7715"/><line style="stroke: #A80036; stroke-width: 1.0;" x1="549" x2="549" y1="431.7715" y2="444.7715"/><line style="stroke: #A80036; stroke-width: 1.0;" x1="508" x2="549" y1="444.7715" y2="444.7715"/><polygon fill="#A80036" points="518,440.7715,508,444.7715,518,448.7715,514,444.7715" style="stroke: #A80036; stroke-width: 1.0;"/><text fill="#000000" font-family="sans-serif" font-size="13" lengthAdjust="spacingAndGlyphs" textLength="128" x="514" y="427.0293">[06] Apply Xref logic</text><polygon fill="#A80036" points="880,475.082,890,479.082,880,483.082,884,479.082" style="stroke: #A80036; stroke-width: 1.0;"/><line style="stroke: #A80036; stroke-width: 1.0; stroke-dasharray: 2.0,2.0;" x1="300.5" x2="886" y1="479.082" y2="479.082"/><text fill="#000000" font-family="sans-serif" font-size="13" lengthAdjust="spacingAndGlyphs" textLength="82" x="307.5" y="474.3398">MHD request</text><polygon fill="#A80036" points="508,504.3926,498,508.3926,508,512.3926,504,508.3926" style="stroke: #A80036; stroke-width: 1.0;"/><line style="stroke: #A80036; stroke-width: 1.0;" x1="502" x2="891" y1="508.3926" y2="508.3926"/><text fill="#000000" font-family="sans-serif" font-size="13" lengthAdjust="spacingAndGlyphs" textLength="152" x="514" y="503.6504">[07] PIXm Query [ITI-83]</text><polygon fill="#A80036" points="306.5,533.7031,296.5,537.7031,306.5,541.7031,302.5,537.7031" style="stroke: #A80036; stroke-width: 1.0;"/><line style="stroke: #A80036; stroke-width: 1.0; stroke-dasharray: 2.0,2.0;" x1="300.5" x2="896" y1="537.7031" y2="537.7031"/><text fill="#000000" font-family="sans-serif" font-size="13" lengthAdjust="spacingAndGlyphs" textLength="92" x="312.5" y="532.9609">MHD response</text><!--MD5=[5612494d00a3c3854799dfd418e047e5]
@startuml
hide footbox

participant "PIXm Source \n (Intensive Care domain)" as Source1
participant "Display \n (Intensive Care domain)" as Display
participant "Patient Identifier \n Cross-reference Manager" as Manager
participant "PIXm Source \n (ADT domain)" as Source2
participant "PIXm Consumer \n (ADT domain Lab System)" as Lab

Source2 -> Manager: [01] PIXm Feed (Add) [ITI-104]
activate Manager
activate Source2
Source2 - -> Lab: notify
activate Lab
deactivate Source2
deactivate Lab
Manager -> Manager: [02] Apply Xref logic

Source2 -> Manager: [03] PIXm Feed (Revise) [ITI-104]
activate Source2
Source2 - -> Lab: notify
activate Lab
deactivate Source2
deactivate Lab
Manager -> Manager: [04] Apply Xref logic

activate Source1

Source1 -> Manager: [05] PIXm Feed (Add) [ITI-104]

Source1 - -> Display: notify
activate Display
deactivate Display

deactivate Source1

Manager -> Manager: [06] Apply Xref logic

activate Display

Display - -> Lab: MHD request
activate Lab

Lab -> Manager: [07] PIXm Query [ITI-83]
deactivate Manager

Lab - -> Display: MHD response

deactivate Display
deactivate Lab

deactivate Manager

autonumber stop
@enduml

PlantUML version 1.2020.06(Sun Apr 05 14:38:32 CEST 2020)
(GPL source distribution)
Java Runtime: OpenJDK Runtime Environment
JVM: OpenJDK 64-Bit Server VM
Java Version: 11.0.11+9
Operating System: Mac OS X
Default Encoding: UTF-8
Language: en
Country: US
--></g></svg>