<?xml version="1.0" encoding="UTF-8" standalone="no"?><svg xmlns="http://www.w3.org/2000/svg" xmlns:xlink="http://www.w3.org/1999/xlink" contentScriptType="application/ecmascript" contentStyleType="text/css" height="698px" preserveAspectRatio="none" style="width:1072px;height:698px;" version="1.1" viewBox="0 0 1072 698" width="1072px" zoomAndPan="magnify"><defs><filter height="300%" id="f10svxxak0axx9" width="300%" x="-1" y="-1"><feGaussianBlur result="blurOut" stdDeviation="2.0"/><feColorMatrix in="blurOut" result="blurOut2" type="matrix" values="0 0 0 0 0 0 0 0 0 0 0 0 0 0 0 0 0 0 .4 0"/><feOffset dx="4.0" dy="4.0" in="blurOut2" result="blurOut3"/><feBlend in="SourceGraphic" in2="blurOut3" mode="normal"/></filter></defs><g><rect fill="#FFFFFF" filter="url(#f10svxxak0axx9)" height="93.6211" style="stroke: #A80036; stroke-width: 1.0;" width="10" x="95.5" y="444.7715"/><rect fill="#FFFFFF" filter="url(#f10svxxak0axx9)" height="30" style="stroke: #A80036; stroke-width: 1.0;" width="10" x="290.5" y="508.3926"/><rect fill="#FFFFFF" filter="url(#f10svxxak0axx9)" height="92.9316" style="stroke: #A80036; stroke-width: 1.0;" width="10" x="290.5" y="575.7031"/><rect fill="#FFFFFF" filter="url(#f10svxxak0axx9)" height="553.0371" style="stroke: #A80036; stroke-width: 1.0;" width="10" x="492" y="86.2871"/><rect fill="#FFFFFF" filter="url(#f10svxxak0axx9)" height="59.3105" style="stroke: #A80036; stroke-width: 1.0;" width="10" x="795" y="86.2871"/><rect fill="#FFFFFF" filter="url(#f10svxxak0axx9)" height="59.3105" style="stroke: #A80036; stroke-width: 1.0;" width="10" x="795" y="217.2188"/><rect fill="#FFFFFF" filter="url(#f10svxxak0axx9)" height="59.3105" style="stroke: #A80036; stroke-width: 1.0;" width="10" x="795" y="348.1504"/><rect fill="#FFFFFF" filter="url(#f10svxxak0axx9)" height="30" style="stroke: #A80036; stroke-width: 1.0;" width="10" x="962" y="115.5977"/><rect fill="#FFFFFF" filter="url(#f10svxxak0axx9)" height="30" style="stroke: #A80036; stroke-width: 1.0;" width="10" x="962" y="246.5293"/><rect fill="#FFFFFF" filter="url(#f10svxxak0axx9)" height="30" style="stroke: #A80036; stroke-width: 1.0;" width="10" x="962" y="377.4609"/><rect fill="#FFFFFF" filter="url(#f10svxxak0axx9)" height="58.6211" style="stroke: #A80036; stroke-width: 1.0;" width="10" x="962" y="610.0137"/><line style="stroke: #A80036; stroke-width: 1.0; stroke-dasharray: 5.0,5.0;" x1="100" x2="100" y1="54.9766" y2="686.6348"/><line style="stroke: #A80036; stroke-width: 1.0; stroke-dasharray: 5.0,5.0;" x1="295" x2="295" y1="54.9766" y2="686.6348"/><line style="stroke: #A80036; stroke-width: 1.0; stroke-dasharray: 5.0,5.0;" x1="497" x2="497" y1="54.9766" y2="686.6348"/><line style="stroke: #A80036; stroke-width: 1.0; stroke-dasharray: 5.0,5.0;" x1="799.5" x2="799.5" y1="54.9766" y2="686.6348"/><line style="stroke: #A80036; stroke-width: 1.0; stroke-dasharray: 5.0,5.0;" x1="966.5" x2="966.5" y1="54.9766" y2="686.6348"/><rect fill="#FEFECE" filter="url(#f10svxxak0axx9)" height="46.9766" style="stroke: #A80036; stroke-width: 1.5;" width="181" x="8" y="3"/><text fill="#000000" font-family="sans-serif" font-size="14" lengthAdjust="spacingAndGlyphs" textLength="85" x="54" y="23.5352">PIXm Source</text><text fill="#000000" font-family="sans-serif" font-size="14" lengthAdjust="spacingAndGlyphs" textLength="163" x="19" y="40.0234">(Intensive Care domain)</text><rect fill="#FEFECE" filter="url(#f10svxxak0axx9)" height="46.9766" style="stroke: #A80036; stroke-width: 1.5;" width="181" x="203" y="3"/><text fill="#000000" font-family="sans-serif" font-size="14" lengthAdjust="spacingAndGlyphs" textLength="49" x="267" y="23.5352">Display</text><text fill="#000000" font-family="sans-serif" font-size="14" lengthAdjust="spacingAndGlyphs" textLength="163" x="214" y="40.0234">(Intensive Care domain)</text><rect fill="#FEFECE" filter="url(#f10svxxak0axx9)" height="46.9766" style="stroke: #A80036; stroke-width: 1.5;" width="194" x="398" y="3"/><text fill="#000000" font-family="sans-serif" font-size="14" lengthAdjust="spacingAndGlyphs" textLength="113" x="436.5" y="23.5352">Patient Identifier</text><text fill="#000000" font-family="sans-serif" font-size="14" lengthAdjust="spacingAndGlyphs" textLength="176" x="409" y="40.0234">Cross-reference Manager</text><rect fill="#FEFECE" filter="url(#f10svxxak0axx9)" height="46.9766" style="stroke: #A80036; stroke-width: 1.5;" width="113" x="741.5" y="3"/><text fill="#000000" font-family="sans-serif" font-size="14" lengthAdjust="spacingAndGlyphs" textLength="85" x="753.5" y="23.5352">PIXm Source</text><text fill="#000000" font-family="sans-serif" font-size="14" lengthAdjust="spacingAndGlyphs" textLength="95" x="752.5" y="40.0234">(ADT domain)</text><rect fill="#FEFECE" filter="url(#f10svxxak0axx9)" height="46.9766" style="stroke: #A80036; stroke-width: 1.5;" width="193" x="868.5" y="3"/><text fill="#000000" font-family="sans-serif" font-size="14" lengthAdjust="spacingAndGlyphs" textLength="109" x="908.5" y="23.5352">PIXm Consumer</text><text fill="#000000" font-family="sans-serif" font-size="14" lengthAdjust="spacingAndGlyphs" textLength="175" x="879.5" y="40.0234">(ADT domain Lab System)</text><rect fill="#FFFFFF" filter="url(#f10svxxak0axx9)" height="93.6211" style="stroke: #A80036; stroke-width: 1.0;" width="10" x="95.5" y="444.7715"/><rect fill="#FFFFFF" filter="url(#f10svxxak0axx9)" height="30" style="stroke: #A80036; stroke-width: 1.0;" width="10" x="290.5" y="508.3926"/><rect fill="#FFFFFF" filter="url(#f10svxxak0axx9)" height="92.9316" style="stroke: #A80036; stroke-width: 1.0;" width="10" x="290.5" y="575.7031"/><rect fill="#FFFFFF" filter="url(#f10svxxak0axx9)" height="553.0371" style="stroke: #A80036; stroke-width: 1.0;" width="10" x="492" y="86.2871"/><rect fill="#FFFFFF" filter="url(#f10svxxak0axx9)" height="59.3105" style="stroke: #A80036; stroke-width: 1.0;" width="10" x="795" y="86.2871"/><rect fill="#FFFFFF" filter="url(#f10svxxak0axx9)" height="59.3105" style="stroke: #A80036; stroke-width: 1.0;" width="10" x="795" y="217.2188"/><rect fill="#FFFFFF" filter="url(#f10svxxak0axx9)" height="59.3105" style="stroke: #A80036; stroke-width: 1.0;" width="10" x="795" y="348.1504"/><rect fill="#FFFFFF" filter="url(#f10svxxak0axx9)" height="30" style="stroke: #A80036; stroke-width: 1.0;" width="10" x="962" y="115.5977"/><rect fill="#FFFFFF" filter="url(#f10svxxak0axx9)" height="30" style="stroke: #A80036; stroke-width: 1.0;" width="10" x="962" y="246.5293"/><rect fill="#FFFFFF" filter="url(#f10svxxak0axx9)" height="30" style="stroke: #A80036; stroke-width: 1.0;" width="10" x="962" y="377.4609"/><rect fill="#FFFFFF" filter="url(#f10svxxak0axx9)" height="58.6211" style="stroke: #A80036; stroke-width: 1.0;" width="10" x="962" y="610.0137"/><polygon fill="#A80036" points="513,82.2871,503,86.2871,513,90.2871,509,86.2871" style="stroke: #A80036; stroke-width: 1.0;"/><line style="stroke: #A80036; stroke-width: 1.0;" x1="507" x2="794" y1="86.2871" y2="86.2871"/><text fill="#000000" font-family="sans-serif" font-size="13" lengthAdjust="spacingAndGlyphs" textLength="189" x="519" y="81.5449">[01] PIXm Feed (Add) [ITI-104]</text><polygon fill="#A80036" points="950,111.5977,960,115.5977,950,119.5977,954,115.5977" style="stroke: #A80036; stroke-width: 1.0;"/><line style="stroke: #A80036; stroke-width: 1.0;" x1="805" x2="956" y1="115.5977" y2="115.5977"/><text fill="#000000" font-family="sans-serif" font-size="13" lengthAdjust="spacingAndGlyphs" textLength="37" x="812" y="110.8555">notify</text><line style="stroke: #A80036; stroke-width: 1.0;" x1="502" x2="544" y1="174.9082" y2="174.9082"/><line style="stroke: #A80036; stroke-width: 1.0;" x1="544" x2="544" y1="174.9082" y2="187.9082"/><line style="stroke: #A80036; stroke-width: 1.0;" x1="503" x2="544" y1="187.9082" y2="187.9082"/><polygon fill="#A80036" points="513,183.9082,503,187.9082,513,191.9082,509,187.9082" style="stroke: #A80036; stroke-width: 1.0;"/><text fill="#000000" font-family="sans-serif" font-size="13" lengthAdjust="spacingAndGlyphs" textLength="128" x="509" y="170.166">[02] Apply Xref logic</text><polygon fill="#A80036" points="513,213.2188,503,217.2188,513,221.2188,509,217.2188" style="stroke: #A80036; stroke-width: 1.0;"/><line style="stroke: #A80036; stroke-width: 1.0;" x1="507" x2="794" y1="217.2188" y2="217.2188"/><text fill="#000000" font-family="sans-serif" font-size="13" lengthAdjust="spacingAndGlyphs" textLength="189" x="519" y="212.4766">[03] PIXm Feed (Add) [ITI-104]</text><polygon fill="#A80036" points="950,242.5293,960,246.5293,950,250.5293,954,246.5293" style="stroke: #A80036; stroke-width: 1.0;"/><line style="stroke: #A80036; stroke-width: 1.0; stroke-dasharray: 2.0,2.0;" x1="805" x2="956" y1="246.5293" y2="246.5293"/><text fill="#000000" font-family="sans-serif" font-size="13" lengthAdjust="spacingAndGlyphs" textLength="37" x="812" y="241.7871">notify</text><line style="stroke: #A80036; stroke-width: 1.0;" x1="502" x2="544" y1="305.8398" y2="305.8398"/><line style="stroke: #A80036; stroke-width: 1.0;" x1="544" x2="544" y1="305.8398" y2="318.8398"/><line style="stroke: #A80036; stroke-width: 1.0;" x1="503" x2="544" y1="318.8398" y2="318.8398"/><polygon fill="#A80036" points="513,314.8398,503,318.8398,513,322.8398,509,318.8398" style="stroke: #A80036; stroke-width: 1.0;"/><text fill="#000000" font-family="sans-serif" font-size="13" lengthAdjust="spacingAndGlyphs" textLength="100" x="509" y="301.0977">Apply Xref logic</text><polygon fill="#A80036" points="513,344.1504,503,348.1504,513,352.1504,509,348.1504" style="stroke: #A80036; stroke-width: 1.0;"/><line style="stroke: #A80036; stroke-width: 1.0;" x1="507" x2="794" y1="348.1504" y2="348.1504"/><text fill="#000000" font-family="sans-serif" font-size="13" lengthAdjust="spacingAndGlyphs" textLength="274" x="519" y="343.4082">[04] PIXm Feed (Resolve duplicate) [ITI-104]</text><polygon fill="#A80036" points="950,373.4609,960,377.4609,950,381.4609,954,377.4609" style="stroke: #A80036; stroke-width: 1.0;"/><line style="stroke: #A80036; stroke-width: 1.0; stroke-dasharray: 2.0,2.0;" x1="805" x2="956" y1="377.4609" y2="377.4609"/><text fill="#000000" font-family="sans-serif" font-size="13" lengthAdjust="spacingAndGlyphs" textLength="37" x="812" y="372.7188">notify</text><line style="stroke: #A80036; stroke-width: 1.0;" x1="502" x2="549" y1="431.7715" y2="431.7715"/><line style="stroke: #A80036; stroke-width: 1.0;" x1="549" x2="549" y1="431.7715" y2="444.7715"/><line style="stroke: #A80036; stroke-width: 1.0;" x1="508" x2="549" y1="444.7715" y2="444.7715"/><polygon fill="#A80036" points="518,440.7715,508,444.7715,518,448.7715,514,444.7715" style="stroke: #A80036; stroke-width: 1.0;"/><text fill="#000000" font-family="sans-serif" font-size="13" lengthAdjust="spacingAndGlyphs" textLength="128" x="514" y="427.0293">[05] Apply Xref logic</text><polygon fill="#A80036" points="480,475.082,490,479.082,480,483.082,484,479.082" style="stroke: #A80036; stroke-width: 1.0;"/><line style="stroke: #A80036; stroke-width: 1.0;" x1="105.5" x2="486" y1="479.082" y2="479.082"/><text fill="#000000" font-family="sans-serif" font-size="13" lengthAdjust="spacingAndGlyphs" textLength="189" x="112.5" y="474.3398">[06] PIXm Feed (Add) [ITI-104]</text><polygon fill="#A80036" points="278.5,504.3926,288.5,508.3926,278.5,512.3926,282.5,508.3926" style="stroke: #A80036; stroke-width: 1.0;"/><line style="stroke: #A80036; stroke-width: 1.0;" x1="105.5" x2="284.5" y1="508.3926" y2="508.3926"/><text fill="#000000" font-family="sans-serif" font-size="13" lengthAdjust="spacingAndGlyphs" textLength="37" x="112.5" y="503.6504">notify</text><line style="stroke: #A80036; stroke-width: 1.0;" x1="502" x2="549" y1="562.7031" y2="562.7031"/><line style="stroke: #A80036; stroke-width: 1.0;" x1="549" x2="549" y1="562.7031" y2="575.7031"/><line style="stroke: #A80036; stroke-width: 1.0;" x1="508" x2="549" y1="575.7031" y2="575.7031"/><polygon fill="#A80036" points="518,571.7031,508,575.7031,518,579.7031,514,575.7031" style="stroke: #A80036; stroke-width: 1.0;"/><text fill="#000000" font-family="sans-serif" font-size="13" lengthAdjust="spacingAndGlyphs" textLength="128" x="514" y="557.9609">[07] Apply Xref logic</text><polygon fill="#A80036" points="950,606.0137,960,610.0137,950,614.0137,954,610.0137" style="stroke: #A80036; stroke-width: 1.0;"/><line style="stroke: #A80036; stroke-width: 1.0; stroke-dasharray: 2.0,2.0;" x1="300.5" x2="956" y1="610.0137" y2="610.0137"/><text fill="#000000" font-family="sans-serif" font-size="13" lengthAdjust="spacingAndGlyphs" textLength="82" x="307.5" y="605.2715">MHD request</text><polygon fill="#A80036" points="508,635.3242,498,639.3242,508,643.3242,504,639.3242" style="stroke: #A80036; stroke-width: 1.0;"/><line style="stroke: #A80036; stroke-width: 1.0;" x1="502" x2="961" y1="639.3242" y2="639.3242"/><text fill="#000000" font-family="sans-serif" font-size="13" lengthAdjust="spacingAndGlyphs" textLength="152" x="514" y="634.582">[08] PIXm Query [ITI-83]</text><polygon fill="#A80036" points="306.5,664.6348,296.5,668.6348,306.5,672.6348,302.5,668.6348" style="stroke: #A80036; stroke-width: 1.0;"/><line style="stroke: #A80036; stroke-width: 1.0; stroke-dasharray: 2.0,2.0;" x1="300.5" x2="966" y1="668.6348" y2="668.6348"/><text fill="#000000" font-family="sans-serif" font-size="13" lengthAdjust="spacingAndGlyphs" textLength="92" x="312.5" y="663.8926">MHD response</text><!--MD5=[d798f31924fe56d88827c6525286363e]
@startuml
hide footbox

participant "PIXm Source \n (Intensive Care domain)" as Source1
participant "Display \n (Intensive Care domain)" as Display
participant "Patient Identifier \n Cross-reference Manager" as Manager
participant "PIXm Source \n (ADT domain)" as Source2
participant "PIXm Consumer \n (ADT domain Lab System)" as Lab

Source2 -> Manager: [01] PIXm Feed (Add) [ITI-104]
activate Manager
activate Source2
Source2 -> Lab: notify
activate Lab
deactivate Source2
deactivate Lab
Manager -> Manager: [02] Apply Xref logic

Source2 -> Manager: [03] PIXm Feed (Add) [ITI-104]
activate Source2
Source2 - -> Lab: notify
activate Lab
deactivate Source2
deactivate Lab
Manager -> Manager: Apply Xref logic

Source2 -> Manager: [04] PIXm Feed (Resolve duplicate) [ITI-104]
activate Source2
Source2 - -> Lab: notify
activate Lab
deactivate Source2
deactivate Lab
Manager -> Manager: [05] Apply Xref logic

activate Source1

Source1 -> Manager: [06] PIXm Feed (Add) [ITI-104]

Source1 -> Display: notify
activate Display
deactivate Display

deactivate Source1

Manager -> Manager: [07] Apply Xref logic

activate Display

Display - -> Lab: MHD request
activate Lab

Lab -> Manager: [08] PIXm Query [ITI-83]
deactivate Manager

Lab - -> Display: MHD response

deactivate Display
deactivate Lab

deactivate Manager

autonumber stop
@enduml

PlantUML version 1.2020.06(Sun Apr 05 14:38:32 CEST 2020)
(GPL source distribution)
Java Runtime: OpenJDK Runtime Environment
JVM: OpenJDK 64-Bit Server VM
Java Version: 11.0.11+9
Operating System: Mac OS X
Default Encoding: UTF-8
Language: en
Country: US
--></g></svg>